HIERARCHY
ROOT Hips
{
    OFFSET 0.000000 0.000000 0.000000
    CHANNELS 6 Xposition Yposition Zposition Zrotation Xrotation Yrotation
    JOINT Spine
    {
        OFFSET -0.000000 14.517291 0.000000
        CHANNELS 3 Zrotation Xrotation Yrotation
        JOINT Spine1
        {
            OFFSET -0.000000 37.558300 0.000000
            CHANNELS 3 Zrotation Xrotation Yrotation
            JOINT Neck
            {
                OFFSET -0.000000 37.404057 3.400369
                CHANNELS 3 Zrotation Xrotation Yrotation
                JOINT Head
                {
                    OFFSET -0.000000 24.785618 -3.540803
                    CHANNELS 3 Zrotation Xrotation Yrotation
                    End Site
                    {
                        OFFSET -0.000000 35.408028 0.000000
                    }
                }
            }
            JOINT LeftShoulder
            {
                OFFSET 6.992933 33.973492 -0.192664
                CHANNELS 3 Zrotation Xrotation Yrotation
                JOINT LeftArm
                {
                    OFFSET 21.527611 0.000000 0.000000
                    CHANNELS 3 Zrotation Xrotation Yrotation
                    JOINT LeftForeArm
                    {
                        OFFSET 56.353916 0.000000 0.000000
                        CHANNELS 3 Zrotation Xrotation Yrotation
                        JOINT LeftHand
                        {
                            OFFSET 47.774071 0.000000 0.000000
                            CHANNELS 3 Zrotation Xrotation Yrotation
                            End Site
                            {
                                OFFSET 26.556021 0.000000 0.000000
                            }
                        }
                    }
                }
            }
            JOINT RightShoulder
            {
                OFFSET -7.065357 33.973492 -0.192664
                CHANNELS 3 Zrotation Xrotation Yrotation
                JOINT RightArm
                {
                    OFFSET -21.527611 0.000000 0.000000
                    CHANNELS 3 Zrotation Xrotation Yrotation
                    JOINT RightForeArm
                    {
                        OFFSET -56.353916 0.000000 0.000000
                        CHANNELS 3 Zrotation Xrotation Yrotation
                        JOINT RightHand
                        {
                            OFFSET -47.774071 0.000000 0.000000
                            CHANNELS 3 Zrotation Xrotation Yrotation
                            End Site
                            {
                                OFFSET -26.556021 0.000000 0.000000
                            }
                        }
                    }
                }
            }
        }
    }
    JOINT LeftUpLeg
    {
        OFFSET 17.704014 0.000000 0.000000
        CHANNELS 3 Zrotation Xrotation Yrotation
        JOINT LeftLeg
        {
            OFFSET -0.000000 -81.181816 0.000000
            CHANNELS 3 Zrotation Xrotation Yrotation
            JOINT LeftFoot
            {
                OFFSET -0.000000 -62.821102 0.000000
                CHANNELS 3 Zrotation Xrotation Yrotation
                JOINT LeftToeBase
                {
                    OFFSET -0.000000 -11.507608 26.556021
                    CHANNELS 3 Zrotation Xrotation Yrotation
                    End Site
                    {
                        OFFSET -0.000000 0.000000 7.081605
                    }
                }
            }
        }
    }
    JOINT RightUpLeg
    {
        OFFSET -17.704014 0.000000 0.000000
        CHANNELS 3 Zrotation Xrotation Yrotation
        JOINT RightLeg
        {
            OFFSET -0.000000 -81.181816 0.000000
            CHANNELS 3 Zrotation Xrotation Yrotation
            JOINT RightFoot
            {
                OFFSET -0.000000 -62.821102 0.000000
                CHANNELS 3 Zrotation Xrotation Yrotation
                JOINT RightToeBase
                {
                    OFFSET -0.000000 -11.507608 26.556021
                    CHANNELS 3 Zrotation Xrotation Yrotation
                    End Site
                    {
                        OFFSET -0.000000 0.000000 7.081605
                    }
                }
            }
        }
    }
}
MOTION
Frames:    11
Frame Time:    0.008333
38.176910    158.089874    -106.020142    -0.890215    -0.566321    21.323948    -1.379958    -3.070752    -0.665778    -8.136640    1.343547    -0.115212    8.262883    6.909395    -7.294656    11.516296    -7.150662    -5.970032    7.477809    -0.748731    -14.235789    -24.606524    -10.393599    -47.691193    -16.840824    -33.666290    -95.427383    -35.729694    -37.861629    -40.379219    -8.392096    5.178974    -6.874203    18.075014    24.923054    9.920086    16.597706    14.341559    2.886792    1.513559    14.254698    24.712120    7.191015    -0.963932    3.108359    -12.132149    28.227028    -15.046966    9.725572    -24.359047    45.541275    0.000000    0.000000    0.000000    -14.722202    -29.041674    -6.815659    11.610723    27.076220    -13.161622    1.054814    14.912350    -12.256648    0.000000    0.000000    0.000000    
38.139656    158.087250    -106.012817    -0.892487    -0.544807    21.301470    -1.457896    -2.975502    -0.624168    -7.967194    1.161922    -0.115723    8.184064    6.911877    -7.335700    11.495463    -7.088720    -6.016144    7.309416    -0.712739    -14.240191    -24.717331    -10.723919    -47.664318    -16.343143    -34.332405    -94.442024    -35.844429    -37.725574    -40.480160    -8.490059    5.264085    -6.972251    18.063610    24.920176    9.988675    16.601879    14.356414    2.886601    1.507549    14.268216    24.712471    7.197473    -0.986795    3.148151    -12.117893    28.241732    -15.061159    9.712250    -24.361727    45.537022    0.000000    0.000000    0.000000    -14.710649    -29.068214    -6.820904    11.613741    27.074036    -13.149104    1.022790    14.906520    -12.237792    0.000000    0.000000    0.000000    
38.101612    158.085587    -106.003235    -0.895257    -0.530708    21.271969    -1.457809    -2.974943    -0.617193    -7.953092    1.139061    -0.114969    8.161942    6.915184    -7.343781    11.504189    -7.073235    -6.022143    7.226757    -0.719979    -14.198109    -24.762497    -11.032883    -47.582947    -15.663639    -34.944145    -93.369217    -35.900967    -37.351616    -40.752274    -8.501385    5.267690    -6.965982    18.070303    24.918840    10.004358    16.592688    14.370008    2.878499    1.516957    14.285118    24.705891    7.204478    -0.979782    3.178702    -11.983946    28.343227    -15.370193    9.647429    -24.487906    45.585934    0.000000    0.000000    0.000000    -14.686612    -29.091248    -6.819794    11.607398    27.074076    -13.144376    1.000828    14.897388    -12.204540    0.000000    0.000000    0.000000    
38.058872    158.081787    -105.992767    -0.903887    -0.514550    21.244123    -1.456791    -2.981405    -0.613527    -7.935218    1.125154    -0.114896    8.127677    6.901206    -7.347322    11.523806    -7.041109    -6.023037    7.160064    -0.727774    -14.145791    -24.799761    -11.302238    -47.517757    -15.196173    -35.627884    -92.480820    -36.061470    -37.321320    -40.854515    -8.504543    5.273263    -6.954453    18.059877    24.914028    10.014429    16.592667    14.363291    2.889153    1.547691    14.283082    24.683044    7.221994    -1.000900    3.201702    -11.983872    28.357317    -15.378420    9.635217    -24.506819    45.610630    0.000000    0.000000    0.000000    -14.654055    -29.116535    -6.827491    11.593026    27.068300    -13.133561    0.977297    14.897646    -12.180734    0.000000    0.000000    0.000000    
38.019096    158.079819    -105.983734    -0.908484    -0.495188    21.217358    -1.445183    -2.973845    -0.617930    -7.953837    1.086139    -0.119167    8.148800    6.888230    -7.336325    11.496945    -7.005644    -6.023288    7.127017    -0.742177    -14.077452    -24.833696    -11.520615    -47.447121    -14.672205    -36.301334    -91.581024    -36.329197    -37.178101    -41.087372    -8.480865    5.290834    -6.936185    18.047426    24.918724    10.028540    16.572451    14.363316    2.889012    1.582077    14.291170    24.699364    7.241943    -1.040444    3.200544    -12.131220    28.262096    -15.020176    9.658090    -24.390383    45.541336    0.000000    0.000000    0.000000    -14.631353    -29.140741    -6.809999    11.602379    27.051893    -13.157805    0.929454    14.896990    -12.150116    0.000000    0.000000    0.000000    
37.984013    158.080338    -105.970619    -0.901206    -0.489770    21.189978    -1.449485    -2.957128    -0.609903    -7.936474    1.060763    -0.118347    8.126634    6.880781    -7.340536    11.481980    -6.981483    -6.031694    7.055299    -0.762369    -14.041753    -24.835339    -11.747944    -47.312336    -14.254278    -36.877777    -90.794136    -36.430813    -37.170982    -41.180782    -8.497196    5.295260    -6.924387    18.058382    24.907219    10.023023    16.574026    14.367578    2.898423    1.571041    14.291720    24.700052    7.245833    -1.032177    3.200117    -12.140382    28.244745    -14.999652    9.650455    -24.376040    45.545803    0.000000    0.000000    0.000000    -14.614771    -29.151270    -6.790807    11.611720    27.050808    -13.151801    0.886870    14.883485    -12.141265    0.000000    0.000000    0.000000    
37.943729    158.080811    -105.962585    -0.906198    -0.472138    21.163857    -1.446145    -2.957263    -0.602809    -7.924093    1.043012    -0.117226    8.071516    6.860429    -7.344732    11.525833    -6.940832    -6.027847    6.995954    -0.794212    -13.996661    -24.805689    -11.888092    -47.176537    -13.805793    -37.489746    -90.030235    -36.536507    -37.193047    -41.278851    -8.505974    5.305660    -6.916310    18.068916    24.881893    10.027553    16.575169    14.367677    2.891183    1.546675    14.287387    24.682009    7.252493    -1.021146    3.207691    -12.013929    28.325809    -15.302718    9.600121    -24.493446    45.606110    0.000000    0.000000    0.000000    -14.590025    -29.180910    -6.775049    11.605906    27.053688    -13.150148    0.897127    14.881797    -12.135539    0.000000    0.000000    0.000000    
37.913849    158.086487    -105.952522    -0.899101    -0.461786    21.138885    -1.448693    -2.950819    -0.591745    -7.918249    1.028633    -0.114589    8.057358    6.861745    -7.358195    11.525599    -6.928750    -6.041783    6.946878    -0.809590    -13.959696    -24.790882    -12.037226    -47.051273    -13.476695    -38.050777    -89.372307    -36.809196    -37.221695    -41.440430    -8.504056    5.315732    -6.906833    18.072800    24.877964    10.021866    16.576147    14.361215    2.894576    1.536704    14.277905    24.654026    7.245792    -1.007904    3.204699    -12.002350    28.290796    -15.321412    9.583314    -24.492737    45.639793    0.000000    0.000000    0.000000    -14.579607    -29.190178    -6.760595    11.609961    27.042152    -13.135962    0.894959    14.884840    -12.145139    0.000000    0.000000    0.000000    
37.884682    158.094711    -105.938507    -0.884803    -0.453015    21.112329    -1.457491    -2.944146    -0.576674    -7.919807    1.018533    -0.110362    8.041810    6.863943    -7.367749    11.546486    -6.919896    -6.046885    6.913461    -0.825958    -13.915529    -24.800045    -12.197260    -46.930779    -13.214210    -38.521740    -88.774734    -36.834469    -37.390976    -41.366875    -8.496893    5.321002    -6.907849    18.081491    24.877964    10.023193    16.548553    14.442734    2.904223    1.336403    14.318540    24.838360    7.231294    -0.985736    3.225046    -11.979211    28.244839    -15.303223    9.536489    -24.483566    45.609531    0.000000    0.000000    0.000000    -14.572514    -29.198181    -6.725422    11.621017    27.033360    -13.160803    0.869967    14.881659    -12.119656    0.000000    0.000000    0.000000    
37.854088    158.106659    -105.931923    -0.878315    -0.431467    21.089733    -1.461766    -2.947466    -0.562138    -7.922814    1.000726    -0.106642    8.037787    6.874370    -7.376351    11.551782    -6.918173    -6.053828    6.882695    -0.830524    -13.878467    -24.817493    -12.380120    -46.798897    -13.100325    -38.878151    -88.279549    -36.961727    -37.505604    -41.447525    -8.503331    5.319216    -6.909067    18.096926    24.874222    10.030321    16.575623    14.447629    2.885888    1.293911    14.316101    24.823212    7.218965    -0.982898    3.255811    -11.950122    28.206474    -15.321379    9.497402    -24.469954    45.607323    0.000000    0.000000    0.000000    -14.570727    -29.218075    -6.695781    11.634267    27.017017    -13.156633    0.867466    14.893479    -12.128057    0.000000    0.000000    0.000000    
37.823692    158.120560    -105.923798    -0.870352    -0.415544    21.063585    -1.466628    -2.950145    -0.549626    -7.917884    0.994162    -0.103083    7.975161    6.839538    -7.365672    11.640390    -6.856609    -6.027916    6.838183    -0.854958    -13.839555    -24.828705    -12.550270    -46.645668    -12.980659    -39.175346    -87.817360    -37.133133    -37.539551    -41.561237    -8.506409    5.337119    -6.922407    18.093645    24.886662    10.057440    16.578104    14.435729    2.899528    1.292998    14.301592    24.786518    7.209217    -0.974156    3.271475    -11.935448    28.164154    -15.298293    9.462595    -24.453369    45.579754    0.000000    0.000000    0.000000    -14.558990    -29.232618    -6.662446    11.635288    26.997721    -13.180168    0.841917    14.912013    -12.105745    0.000000    0.000000    0.000000    
